<?xml version="1.0" standalone="no"?>
<!DOCTYPE svg PUBLIC "-//W3C//DTD SVG 20010904//EN"
 "http://www.w3.org/TR/2001/REC-SVG-20010904/DTD/svg10.dtd">
<svg version="1.0" xmlns="http://www.w3.org/2000/svg"
 width="1216.000000pt" height="1216.000000pt" viewBox="0 0 1216.000000 1216.000000"
 preserveAspectRatio="xMidYMid meet">
<metadata>
Created by potrace 1.11, written by Peter Selinger 2001-2013
</metadata>
<g transform="translate(0.000000,1216.000000) scale(0.100000,-0.100000)"
fill="#000000" stroke="none">
<path d="M2876 12003 c-1 -1 -38 -5 -82 -7 -70 -5 -106 -9 -180 -21 -66 -10
-208 -52 -261 -76 -35 -15 -63 -26 -63 -24 0 3 -21 -8 -47 -23 -27 -15 -61
-34 -78 -42 -16 -8 -32 -17 -35 -20 -11 -11 -70 -50 -75 -50 -4 0 -12 -6 -19
-12 -7 -7 -26 -22 -41 -33 -80 -56 -299 -300 -328 -365 -4 -8 -13 -24 -19 -35
-7 -11 -20 -31 -29 -45 -34 -54 -136 -320 -123 -320 2 0 -1 -11 -6 -26 -6 -14
-12 -37 -15 -52 -3 -15 -7 -37 -9 -50 -16 -79 -19 -357 -20 -1887 -1 -935 -5
-1706 -9 -1712 -5 -7 -4 -13 0 -13 10 0 11 -410 1 -426 -4 -6 -4 -14 -1 -18
10 -9 11 -516 2 -542 -4 -12 -5 -25 -1 -28 9 -10 9 -406 -1 -406 -4 0 -4 -8 1
-17 10 -22 9 -294 -2 -311 -4 -7 -4 -12 1 -12 4 0 7 -87 6 -192 -2 -106 -3
-200 -3 -208 0 -8 1 -78 3 -155 1 -77 -2 -146 -7 -152 -5 -8 -5 -13 0 -13 11
0 11 -211 0 -228 -4 -7 -4 -12 1 -12 9 0 9 -387 0 -396 -3 -3 -2 -16 3 -28 4
-13 4 -29 0 -36 -5 -8 -6 -18 -3 -24 10 -15 9 -146 0 -146 -5 0 -5 -6 -1 -12
9 -15 12 -288 3 -288 -3 0 -5 -10 -3 -22 1 -13 3 -23 4 -23 6 0 4 -168 -3
-172 -4 -2 -4 -12 1 -21 9 -21 8 -104 -2 -120 -4 -7 -4 -12 1 -12 4 0 8 -29 8
-65 0 -36 -3 -65 -7 -65 -4 0 -5 -7 -2 -15 8 -19 11 -275 4 -275 -3 0 -4 -21
-2 -47 1 -27 2 -68 2 -93 -1 -53 -1 -38 0 -200 1 -71 1 -132 0 -135 -2 -7 -2
-84 0 -92 4 -18 0 -115 -5 -123 -4 -6 -3 -10 2 -10 9 0 8 -244 -1 -266 -3 -8
-2 -14 2 -14 6 0 7 -181 2 -305 -2 -42 -1 -321 1 -375 1 -25 1 -52 1 -60 -1
-8 -1 -53 -1 -100 0 -47 0 -92 0 -100 -1 -8 0 -37 0 -65 1 -27 1 -57 1 -65 -5
-124 -1 -605 5 -610 7 -6 195 73 813 338 115 50 197 85 215 93 11 4 45 19 75
32 30 13 116 50 190 81 74 32 149 63 165 71 17 7 50 22 75 33 135 60 226 96
233 94 4 -1 7 2 7 8 0 6 3 9 8 8 4 -1 23 5 42 14 19 8 85 36 145 62 130 55
138 58 190 82 22 10 42 19 45 19 3 1 21 8 40 17 19 8 80 34 135 57 98 42 114
48 205 89 25 11 74 32 110 47 36 15 79 33 95 40 17 8 100 43 185 80 85 36 164
70 175 75 40 19 210 92 220 94 6 2 36 15 69 29 32 15 60 27 61 27 2 0 25 10
52 22 26 12 50 22 53 23 6 2 -3 -2 280 120 124 53 230 97 235 98 6 1 13 6 16
10 3 5 12 10 20 11 8 1 28 8 44 16 17 7 39 16 50 21 11 4 51 22 88 38 38 17
70 31 71 31 2 0 30 12 62 27 33 15 62 27 67 29 4 1 9 3 12 4 3 1 8 3 13 5 4 1
21 8 37 15 35 15 48 18 55 10 3 -3 88 -41 190 -84 218 -92 243 -103 294 -127
22 -11 43 -19 47 -19 5 0 36 -13 71 -29 35 -17 92 -42 128 -56 36 -15 83 -35
105 -45 22 -10 85 -37 140 -60 55 -23 119 -51 142 -61 41 -19 93 -41 103 -44
9 -3 54 -22 112 -48 31 -14 59 -23 62 -19 3 3 6 0 6 -6 0 -7 5 -12 10 -12 6 0
32 -10 58 -21 59 -27 90 -40 172 -74 36 -15 83 -35 105 -45 22 -10 85 -37 140
-60 55 -24 118 -51 140 -61 22 -10 69 -30 105 -44 36 -15 83 -35 105 -45 23
-10 90 -39 150 -65 61 -25 124 -52 140 -59 156 -69 293 -126 303 -126 7 0 12
-5 12 -10 0 -6 3 -9 8 -8 4 1 21 -4 37 -11 32 -12 37 -14 127 -55 31 -14 59
-26 62 -26 3 0 31 -12 63 -26 32 -14 67 -30 78 -34 11 -4 40 -17 65 -28 25
-11 137 -59 250 -107 113 -48 223 -95 245 -105 22 -10 69 -30 105 -45 36 -15
83 -35 105 -45 22 -10 85 -37 140 -61 55 -23 118 -50 140 -59 103 -47 281
-120 289 -119 5 0 12 -4 15 -9 3 -5 17 -13 30 -17 22 -7 23 -5 19 34 -2 23 -1
41 2 41 4 0 4 665 -1 688 -1 4 -1 11 0 15 2 12 2 930 0 942 -1 6 -1 14 0 19 4
19 0 8775 -3 8838 -4 60 -9 104 -22 173 -28 149 -104 346 -187 480 -53 86
-182 244 -242 297 -5 4 -22 19 -37 32 -87 77 -258 191 -305 202 -13 4 -23 10
-23 15 0 5 -8 9 -18 9 -10 0 -22 4 -28 9 -12 12 -176 69 -217 76 -18 3 -48 10
-67 15 -47 12 -105 20 -187 25 -66 5 -6502 12 -6507 8z m254 -326 c0 -5 4 -6
9 -3 9 6 177 11 196 6 6 -1 15 -1 20 0 6 1 28 1 50 1 44 -1 125 0 195 0 25 1
50 0 55 -1 6 -1 15 -1 20 0 10 2 23 2 125 0 25 0 177 1 338 2 160 2 292 -1
292 -5 0 -5 4 -5 10 -2 9 6 91 9 115 5 6 -1 39 -1 75 0 205 6 420 4 420 -3 0
-5 4 -6 9 -3 9 6 177 11 196 6 6 -1 15 -1 20 0 6 1 28 1 50 1 44 -1 125 0 195
0 25 1 50 0 55 -1 6 -1 15 -1 20 0 10 2 23 2 125 0 25 0 177 1 338 2 160 2
292 -1 292 -5 0 -5 4 -5 10 -2 9 6 91 9 115 5 6 -1 39 -1 75 0 205 6 420 4
420 -3 0 -5 4 -6 9 -3 9 6 177 11 196 6 6 -1 15 -1 20 0 6 1 28 1 50 1 44 -1
125 0 195 0 25 1 50 0 55 -1 6 -1 15 -1 20 0 10 2 23 2 125 0 25 0 177 1 338
2 160 2 292 -1 292 -5 0 -5 4 -5 10 -2 9 6 91 9 115 5 6 -1 39 -1 75 0 205 6
420 4 420 -3 0 -5 4 -6 9 -3 9 6 177 11 196 6 6 -1 15 -1 20 0 22 5 293 -6
335 -13 20 -4 88 -17 110 -22 3 -1 25 -7 50 -14 25 -7 45 -12 45 -10 0 2 14
-4 30 -13 17 -8 59 -30 95 -48 111 -56 202 -121 290 -210 79 -79 180 -213 180
-239 0 -6 3 -11 8 -11 4 0 13 -15 21 -32 8 -18 25 -57 38 -86 14 -30 25 -62
26 -73 1 -10 4 -19 7 -19 4 0 7 -6 8 -12 0 -7 3 -24 6 -38 16 -69 19 -87 23
-110 5 -32 14 -226 13 -292 0 -10 0 -25 0 -33 0 -8 0 -22 0 -30 0 -8 0 -22 0
-30 0 -8 0 -22 0 -30 0 -8 0 -21 1 -27 0 -12 0 -102 -1 -140 0 -10 0 -25 0
-33 0 -8 0 -22 0 -30 0 -8 0 -22 0 -30 0 -8 0 -22 0 -30 0 -8 0 -22 0 -30 0
-8 0 -21 1 -27 0 -12 0 -102 -1 -140 0 -10 0 -25 0 -33 0 -8 0 -22 0 -30 0 -8
0 -22 0 -30 0 -8 0 -22 0 -30 0 -8 0 -22 0 -30 0 -8 0 -21 1 -27 0 -12 0 -102
-1 -140 0 -10 0 -25 0 -33 0 -8 0 -22 0 -30 0 -8 0 -22 0 -30 0 -8 0 -22 0
-30 0 -8 0 -22 0 -30 0 -8 0 -21 1 -27 0 -12 0 -102 -1 -140 0 -10 0 -25 0
-33 0 -8 0 -22 0 -30 0 -8 0 -22 0 -30 0 -8 0 -22 0 -30 0 -8 0 -22 0 -30 0
-8 0 -21 1 -27 0 -12 0 -102 -1 -140 0 -10 0 -25 0 -33 0 -8 0 -22 0 -30 0 -8
0 -22 0 -30 0 -8 0 -22 0 -30 0 -8 0 -22 0 -30 0 -8 0 -21 1 -27 0 -12 0 -102
-1 -140 0 -10 0 -25 0 -33 0 -8 0 -22 0 -30 0 -8 0 -22 0 -30 0 -8 0 -22 0
-30 0 -8 0 -22 0 -30 0 -8 0 -21 1 -27 0 -12 0 -102 -1 -140 0 -10 0 -25 0
-33 0 -8 0 -22 0 -30 0 -8 0 -22 0 -30 0 -8 0 -22 0 -30 0 -8 0 -22 0 -30 0
-8 0 -21 1 -27 0 -12 0 -102 -1 -140 0 -10 0 -25 0 -33 0 -8 0 -22 0 -30 0 -8
0 -22 0 -30 0 -8 0 -22 0 -30 0 -8 0 -22 0 -30 0 -8 0 -21 1 -27 0 -12 0 -102
-1 -140 0 -10 0 -25 0 -33 0 -8 0 -22 0 -30 0 -8 0 -22 0 -30 0 -8 0 -22 0
-30 0 -8 0 -22 0 -30 0 -8 0 -21 1 -27 0 -12 0 -102 -1 -140 0 -10 0 -25 0
-33 0 -8 0 -22 0 -30 0 -8 0 -22 0 -30 0 -8 0 -22 0 -30 0 -8 0 -22 0 -30 0
-8 0 -21 1 -27 0 -12 0 -102 -1 -140 0 -10 0 -25 0 -33 0 -8 0 -22 0 -30 0 -8
0 -22 0 -30 0 -8 0 -22 0 -30 0 -8 0 -22 0 -30 0 -8 0 -21 1 -27 0 -12 0 -102
-1 -140 0 -10 0 -25 0 -33 0 -8 0 -22 0 -30 0 -8 0 -22 0 -30 0 -8 0 -22 0
-30 0 -8 0 -22 0 -30 0 -8 0 -21 1 -27 0 -12 0 -102 -1 -140 0 -10 0 -25 0
-33 0 -8 0 -22 0 -30 0 -8 0 -22 0 -30 0 -8 0 -22 0 -30 0 -8 0 -22 0 -30 0
-8 0 -21 1 -27 0 -12 0 -102 -1 -140 0 -10 0 -25 0 -33 0 -8 0 -22 0 -30 0 -8
0 -22 0 -30 0 -8 0 -22 0 -30 0 -8 0 -22 0 -30 0 -8 0 -21 1 -27 0 -12 0 -102
-1 -140 0 -10 0 -25 0 -33 0 -8 0 -22 0 -30 0 -8 0 -22 0 -30 0 -8 0 -22 0
-30 0 -8 0 -22 0 -30 0 -8 0 -21 1 -27 0 -12 0 -102 -1 -140 0 -10 0 -25 0
-33 0 -8 0 -22 0 -30 0 -8 0 -22 0 -30 0 -8 0 -22 0 -30 0 -8 0 -22 0 -30 0
-8 0 -21 1 -27 0 -12 0 -102 -1 -140 0 -10 0 -25 0 -33 0 -8 0 -22 0 -30 0 -8
0 -22 0 -30 0 -8 0 -22 0 -30 0 -8 0 -22 0 -30 0 -8 0 -21 1 -27 0 -12 0 -102
-1 -140 0 -10 0 -25 0 -33 0 -8 0 -22 0 -30 0 -8 0 -22 0 -30 0 -8 0 -22 0
-30 0 -8 0 -22 0 -30 0 -8 0 -21 1 -27 0 -12 0 -102 -1 -140 0 -10 0 -25 0
-33 0 -8 0 -22 0 -30 0 -8 0 -22 0 -30 0 -8 0 -22 0 -30 0 -8 0 -22 0 -30 0
-8 0 -21 1 -27 0 -12 0 -102 -1 -140 0 -10 0 -25 0 -33 0 -8 0 -22 0 -30 0 -8
0 -22 0 -30 0 -8 0 -22 0 -30 0 -8 0 -22 0 -30 0 -8 0 -21 1 -27 0 -12 0 -102
-1 -140 0 -10 0 -25 0 -33 0 -8 0 -22 0 -30 0 -8 0 -22 0 -30 0 -8 0 -22 0
-30 0 -8 0 -22 0 -30 0 -8 0 -21 1 -27 0 -12 0 -102 -1 -140 0 -10 0 -25 0
-33 0 -8 0 -22 0 -30 0 -8 0 -22 0 -30 0 -8 0 -22 0 -30 0 -8 0 -22 0 -30 0
-8 0 -21 1 -27 0 -12 0 -102 -1 -140 0 -10 0 -25 0 -33 0 -8 0 -22 0 -30 0 -8
0 -22 0 -30 0 -8 0 -22 0 -30 0 -8 0 -22 0 -30 0 -8 0 -21 1 -27 0 -12 0 -102
-1 -140 0 -10 0 -25 0 -33 0 -8 0 -22 0 -30 0 -8 0 -22 0 -30 0 -8 0 -22 0
-30 0 -8 0 -22 0 -30 0 -8 0 -21 1 -27 0 -12 0 -102 -1 -140 0 -10 0 -25 0
-33 0 -8 0 -22 0 -30 0 -8 0 -22 0 -30 0 -8 0 -22 0 -30 0 -8 0 -22 0 -30 0
-8 0 -21 1 -27 0 -12 0 -102 -1 -140 0 -10 0 -25 0 -33 0 -8 0 -22 0 -30 0 -8
0 -22 0 -30 0 -8 0 -22 0 -30 0 -8 0 -22 0 -30 0 -8 1 -21 1 -27 1 -7 1 -33 0
-58 -1 -25 -1 -53 -1 -62 0 -10 0 -25 0 -33 0 -8 0 -21 1 -27 0 -7 0 -22 -1
-33 0 -20 0 -29 1 -90 0 -16 0 -45 0 -62 0 -18 -1 -44 -1 -58 0 -42 0 -58 -1
-122 0 -34 2 -67 6 -73 3 -5 2 -10 -4 -10 -6 0 -6 -11 -1 -30 5 -17 5 -32 0
-35 -5 -3 -6 -15 0 -29 4 -12 4 -29 0 -36 -5 -8 -6 -18 -3 -24 3 -5 5 -32 4
-60 -2 -72 -2 -69 -1 -91 1 -17 1 -105 0 -150 0 -26 0 -45 1 -57 0 -7 0 -22
-1 -33 0 -11 0 -29 0 -40 0 -11 0 -31 0 -45 0 -14 2 -37 4 -53 2 -15 0 -29 -3
-32 -4 -2 -6 -17 -5 -33 l2 -30 -66 30 c-61 28 -110 49 -122 53 -8 3 -33 13
-395 170 -187 81 -346 147 -352 148 -7 0 -13 4 -13 9 0 4 -3 7 -7 6 -8 -1 -11
0 -143 57 -117 51 -134 58 -140 60 -3 0 -27 11 -55 24 -27 12 -54 24 -60 25
-15 4 -51 20 -128 55 -37 17 -70 31 -72 31 -2 0 -28 11 -57 24 -29 13 -114 49
-188 81 -74 32 -155 66 -180 77 -25 11 -54 24 -65 29 -46 20 -80 32 -87 31 -5
-1 -8 2 -8 8 0 5 -6 10 -14 10 -8 0 -42 13 -77 29 -35 16 -125 55 -199 86 -74
32 -153 65 -175 75 -66 28 -80 33 -87 32 -5 -1 -8 2 -8 8 0 5 -5 10 -12 10
-12 0 -299 121 -308 130 -3 3 -11 6 -19 8 -8 2 -30 10 -50 19 -20 9 -38 17
-41 17 -5 1 -163 71 -265 116 -27 13 -55 24 -61 25 -6 2 -48 19 -95 40 -138
60 -157 69 -349 150 -163 69 -183 77 -240 103 -186 83 -177 82 -288 31 -37
-17 -71 -32 -77 -34 -5 -1 -26 -9 -45 -18 -147 -65 -298 -129 -315 -133 -11
-2 -21 -8 -23 -14 -2 -5 -10 -10 -18 -10 -9 0 -41 -12 -72 -26 -31 -14 -81
-37 -110 -50 -29 -13 -55 -24 -58 -24 -2 0 -21 -7 -42 -16 -20 -10 -43 -18
-51 -20 -8 -1 -18 -9 -22 -16 -5 -7 -9 -10 -9 -6 0 5 -183 -69 -275 -112 -85
-39 -155 -68 -155 -63 0 3 -6 1 -12 -5 -7 -5 -121 -56 -253 -112 -301 -128
-297 -127 -342 -147 -21 -10 -40 -18 -43 -18 -3 -1 -27 -11 -53 -23 -27 -12
-50 -22 -53 -22 -2 0 -27 -11 -56 -24 -29 -14 -114 -50 -188 -82 -74 -31 -159
-68 -189 -81 -30 -14 -60 -26 -65 -27 -6 -1 -37 -14 -69 -29 -32 -15 -60 -27
-63 -27 -4 0 -41 -16 -83 -36 -42 -20 -80 -37 -86 -38 -12 -3 -20 -7 -222 -94
-89 -38 -164 -67 -167 -64 -4 3 -6 0 -6 -6 0 -7 -9 -12 -20 -12 -11 0 -20 -4
-20 -10 0 -5 -8 -10 -18 -10 -10 0 -29 -8 -42 -17 -14 -10 -27 -17 -30 -17 -7
2 -30 -6 -75 -26 -22 -10 -76 -33 -120 -51 -44 -18 -83 -38 -87 -44 -4 -5 -8
-7 -8 -3 0 7 -35 -6 -131 -50 -118 -54 -279 -119 -279 -113 0 3 -4 1 -8 -5 -4
-5 -34 -21 -67 -34 -33 -13 -65 -27 -71 -31 -12 -9 -12 -6 -13 61 0 25 -1 53
-1 63 0 25 0 44 0 122 0 39 0 76 0 83 0 6 0 36 1 66 1 30 -1 59 -5 64 -3 6 -2
13 3 16 4 3 5 23 1 45 -4 22 -4 45 0 52 4 6 5 23 1 38 -4 14 -5 37 -1 51 4 14
3 32 -1 41 -4 8 -4 21 1 28 4 8 4 26 0 42 -5 15 -6 30 -3 33 8 8 7 162 -1 175
-4 6 -4 11 1 11 4 0 8 25 8 55 0 30 -4 55 -8 55 -5 0 -5 5 -2 11 10 15 11 119
2 119 -5 0 -5 5 -1 12 10 16 11 150 2 171 -5 9 -5 17 0 17 9 0 7 64 -3 80 -3
5 -2 11 2 13 9 5 7 142 -1 164 -3 7 -2 13 2 13 9 0 8 233 -2 248 -4 7 -3 12 1
12 9 0 9 102 0 116 -3 6 -2 16 3 23 4 8 4 27 0 42 -5 16 -6 29 -2 29 4 0 7 70
7 155 0 85 -4 155 -8 155 -5 0 -5 5 -1 12 10 16 11 308 1 308 -5 0 -5 5 -1 12
11 17 11 431 1 446 -5 7 -6 12 -1 12 11 0 11 91 0 108 -4 7 -4 12 1 12 4 0 8
92 8 205 0 113 -4 205 -8 205 -5 0 -5 6 0 12 10 17 10 1048 0 1048 -5 0 -5 6
0 13 4 6 8 1180 9 2607 1 1427 4 2615 8 2640 3 25 8 56 10 70 3 14 7 36 10 50
2 14 9 37 15 53 6 15 9 27 6 27 -2 0 4 20 15 45 11 25 19 46 19 48 -2 3 59
125 74 152 18 30 51 79 57 85 3 3 18 23 35 45 106 144 325 297 505 355 118 38
160 46 294 55 44 3 81 7 82 8 7 6 234 1 234 -6z"/>
<path d="M5122 10588 c-6 -6 -12 -9 -12 -6 0 4 -33 -4 -72 -18 -40 -14 -83
-27 -96 -30 -12 -2 -46 -13 -75 -23 -29 -11 -113 -38 -187 -61 -74 -23 -146
-45 -160 -50 -25 -9 -258 -82 -272 -86 -5 -1 -10 -3 -13 -4 -3 -1 -8 -3 -12
-4 -19 -5 -69 -32 -81 -43 -7 -7 -21 -18 -30 -25 -18 -14 -54 -77 -60 -106 -4
-23 -4 -103 0 -123 2 -9 11 -28 21 -42 9 -15 17 -29 17 -33 0 -11 64 -64 78
-64 6 0 12 -4 12 -9 0 -10 53 -24 90 -24 35 0 89 9 130 23 19 6 42 13 50 15
12 2 146 44 226 70 8 2 11 -215 11 -813 l0 -817 -33 0 c-19 0 -34 4 -34 9 0 5
-6 4 -12 -1 -7 -5 -44 -7 -83 -6 -38 2 -76 3 -82 3 -67 0 -105 0 -115 1 -36 3
-118 -15 -155 -33 -43 -21 -93 -69 -93 -88 0 -5 -5 -10 -12 -10 -6 0 -9 -3 -6
-6 4 -3 1 -20 -6 -37 -23 -57 -10 -137 31 -202 41 -65 111 -98 215 -101 44 -1
82 -5 85 -7 3 -3 15 -2 27 3 12 4 29 4 37 0 8 -5 21 -5 29 0 7 4 24 4 36 0 14
-6 26 -5 29 1 4 5 11 7 16 3 13 -7 117 -9 125 -2 3 4 18 2 34 -2 16 -4 31 -6
34 -3 7 8 105 7 112 0 3 -3 19 -1 35 3 16 5 29 5 29 0 0 -4 16 -4 35 0 19 4
37 4 40 -1 3 -4 17 -4 30 1 13 5 26 6 29 2 3 -5 30 -5 61 -2 31 3 58 3 61 -2
3 -4 16 -3 29 2 15 6 27 6 30 0 3 -6 15 -6 30 0 15 6 27 6 30 0 3 -6 15 -6 29
0 13 5 26 7 29 4 7 -7 157 -10 157 -3 0 4 14 4 32 0 19 -4 50 0 77 9 49 17
111 50 111 60 0 4 8 15 19 26 30 32 42 63 48 115 13 117 -51 212 -172 255 -16
6 -167 15 -232 14 -23 0 -103 0 -115 0 -7 0 -35 -1 -61 -2 -27 -2 -52 1 -55 7
-3 5 -6 518 -7 1140 0 1003 -2 1130 -15 1133 -9 1 -21 -3 -28 -10z"/>
<path d="M7095 10561 c-3 -3 -18 -7 -33 -9 -98 -12 -248 -90 -342 -176 -56
-50 -140 -150 -140 -165 0 -6 -4 -11 -8 -11 -5 0 -14 -10 -20 -22 -6 -13 -25
-48 -43 -78 -17 -30 -39 -75 -49 -100 -9 -25 -20 -54 -25 -65 -23 -58 -63
-226 -70 -295 -2 -19 -7 -62 -10 -95 -7 -63 -8 -698 -1 -750 16 -119 20 -144
50 -265 3 -8 9 -27 15 -42 6 -16 8 -28 5 -28 -2 0 1 -10 8 -22 7 -13 13 -25
14 -28 1 -3 5 -16 9 -29 15 -46 98 -207 138 -266 45 -67 153 -174 204 -202 18
-9 33 -21 33 -25 0 -5 9 -8 20 -8 11 0 20 -5 20 -10 0 -6 3 -9 8 -8 4 1 24 -6
46 -15 161 -70 377 -81 544 -28 66 22 162 68 174 86 4 5 8 7 8 3 0 -25 185
160 238 239 50 74 126 222 138 268 1 6 14 50 28 98 14 48 25 91 24 95 -1 4 2
23 5 42 13 65 17 95 23 165 8 86 9 686 1 735 -3 19 -9 64 -13 100 -3 36 -11
73 -16 83 -5 9 -7 17 -4 17 8 0 -29 120 -63 204 -43 109 -106 233 -142 281
-16 22 -36 51 -45 65 -14 21 -54 56 -166 145 -40 32 -173 86 -273 111 -35 9
-282 13 -290 5z m231 -485 c77 -24 155 -107 194 -206 6 -14 15 -34 20 -45 16
-33 71 -207 75 -240 16 -108 19 -178 19 -410 0 -283 -5 -350 -34 -480 -24
-109 -100 -271 -153 -327 -19 -20 -33 -39 -31 -41 2 -2 -22 -17 -53 -32 -46
-23 -72 -29 -123 -29 -171 1 -244 67 -336 305 -67 174 -78 256 -78 609 0 302
9 401 48 525 2 6 9 31 17 58 7 26 17 47 21 47 4 0 8 6 8 13 0 7 14 40 32 73
42 78 121 156 178 177 50 18 143 19 196 3z"/>
<path d="M7398 6101 c-31 -10 -60 -16 -63 -13 -3 3 -5 1 -5 -5 0 -5 -6 -10
-12 -10 -7 0 -74 -20 -148 -44 -74 -24 -139 -44 -145 -45 -5 0 -23 -6 -39 -13
-16 -6 -38 -13 -50 -16 -11 -2 -21 -4 -21 -5 0 -1 -7 -3 -15 -5 -8 -2 -42 -13
-75 -25 -33 -11 -61 -20 -63 -19 -2 0 -15 -4 -30 -9 -15 -6 -61 -20 -102 -33
-158 -46 -231 -94 -263 -171 -20 -47 -16 -161 6 -203 40 -76 139 -133 222
-129 22 1 40 3 40 4 0 1 9 3 20 5 12 3 79 23 150 46 72 23 136 42 143 42 6 0
12 3 12 7 0 4 7 7 15 7 13 0 15 -97 15 -814 0 -643 -3 -813 -12 -814 -7 -1
-31 -1 -53 0 -22 1 -46 1 -52 1 -7 0 -26 0 -43 0 -16 0 -38 0 -47 0 -10 0 -43
-1 -73 -3 -30 -1 -61 2 -67 7 -8 5 -13 5 -13 -1 0 -5 -17 -8 -37 -7 -21 1 -53
-5 -70 -12 -18 -7 -33 -10 -33 -7 0 7 -71 -46 -88 -67 -79 -93 -67 -253 24
-327 42 -33 116 -62 156 -59 15 1 28 -1 28 -4 0 -7 59 -4 67 4 3 3 14 1 24 -5
13 -6 25 -6 39 1 14 8 20 8 20 0 0 -8 6 -8 20 0 14 8 20 8 20 0 0 -8 6 -8 20
0 14 8 20 8 20 0 0 -7 6 -7 21 1 14 7 24 8 31 1 7 -7 19 -7 34 -2 14 6 24 6
24 0 0 -5 12 -5 30 0 17 5 30 6 30 2 0 -4 16 -7 35 -7 19 0 35 3 35 7 0 4 6 5
14 2 25 -10 110 -11 129 -2 11 6 17 5 17 -2 0 -8 6 -8 20 0 14 8 20 8 20 0 0
-8 6 -8 20 0 14 8 20 8 20 0 0 -6 5 -8 11 -5 13 9 79 12 79 5 0 -7 77 -3 90 5
6 3 10 3 10 -2 0 -4 11 -8 25 -8 14 0 25 3 25 7 0 4 14 3 30 -2 18 -5 30 -5
30 0 0 6 10 6 24 0 15 -5 27 -5 34 2 6 6 12 6 16 -1 5 -7 15 -7 31 -1 14 5 25
6 25 2 0 -4 11 -7 25 -7 14 0 25 3 25 7 0 4 13 3 29 -2 15 -4 34 -4 42 0 7 5
16 7 19 5 4 -2 24 1 46 6 138 39 214 194 156 321 -44 96 -119 140 -248 143
-39 1 -76 5 -82 9 -7 4 -12 4 -12 -1 0 -10 -181 -10 -198 1 -7 4 -12 3 -12 -2
0 -9 -56 -9 -65 0 -3 3 -6 517 -6 1142 0 625 -3 1136 -7 1135 -4 0 -33 -8 -64
-18z"/>
<path d="M4818 6085 c-2 -2 -16 -5 -33 -8 -207 -33 -415 -181 -535 -382 -13
-22 -26 -42 -29 -45 -9 -8 -56 -109 -79 -170 -26 -66 -60 -191 -66 -240 -3
-19 -5 -35 -6 -35 -20 0 -33 -766 -16 -900 12 -91 16 -117 31 -190 7 -34 55
-185 64 -200 3 -5 6 -14 7 -20 3 -20 83 -181 108 -218 14 -21 26 -42 26 -47 0
-15 142 -154 193 -189 56 -38 190 -101 216 -101 10 0 21 -3 25 -7 3 -4 12 -8
19 -9 239 -42 429 -10 606 103 56 36 170 145 206 197 11 16 25 34 30 41 9 10
17 22 48 78 6 12 17 29 23 37 6 8 21 42 34 75 13 33 27 65 32 72 6 7 7 16 4
22 -4 5 -1 15 6 23 7 7 14 20 15 28 1 8 11 56 22 106 34 150 36 184 36 589 0
384 -3 437 -25 543 -7 30 -13 59 -14 65 -9 39 -20 74 -29 85 -5 6 -7 12 -4 12
17 0 -108 269 -165 354 -43 64 -149 176 -167 176 -6 0 -11 4 -11 9 0 7 -182
106 -202 110 -9 1 -14 2 -25 6 -32 8 -62 16 -88 21 -32 7 -251 15 -257 9z
m241 -504 c24 -13 58 -38 75 -56 34 -36 96 -145 96 -169 0 -9 5 -16 10 -16 6
0 9 -3 8 -7 -1 -5 9 -39 22 -78 13 -38 25 -72 25 -75 1 -3 4 -21 8 -40 15 -73
17 -86 23 -130 15 -104 6 -618 -12 -713 -2 -12 -6 -35 -10 -52 -8 -44 -55
-188 -65 -201 -5 -6 -6 -14 -2 -17 3 -4 2 -7 -3 -7 -6 0 -16 -16 -24 -35 -8
-19 -18 -35 -22 -35 -5 0 -7 -4 -3 -9 3 -5 -21 -36 -53 -68 -72 -73 -135 -97
-229 -88 -141 13 -221 93 -302 303 -23 59 -57 185 -67 247 -9 62 -12 612 -3
685 22 184 68 320 148 441 36 55 107 123 125 121 3 -1 18 5 32 13 43 22 169
14 223 -14z"/>
</g>
</svg>
